<svg width="223" height="43" viewBox="0 0 223 43" fill="none" xmlns="http://www.w3.org/2000/svg">
<path d="M20.05 12.55H13.85V9.15C13.85 8.08333 13.5 7.26666 12.8 6.7C12.1333 6.1 11.2167 5.8 10.05 5.8C7.78333 5.8 6.65 6.81666 6.65 8.85V10.7C6.65 12.1667 7.3 13.3333 8.6 14.2C9.1 14.5667 10.25 15.2 12.05 16.1C13.6167 16.9333 14.8 17.6 15.6 18.1C16.4 18.6 17.2333 19.2667 18.1 20.1C19 20.9333 19.6167 21.8667 19.95 22.9C20.3167 23.9 20.5 25.1167 20.5 26.55V28.95C20.5 32.0833 19.5833 34.4667 17.75 36.1C15.95 37.7 13.5333 38.5 10.5 38.5C7.4 38.5 4.88333 37.7 2.95 36.1C1.05 34.4667 0.1 32.15 0.1 29.15V25.85H6.3V29C6.3 30.2 6.66667 31.1333 7.4 31.8C8.16667 32.4333 9.21667 32.7333 10.55 32.7C13.05 32.7 14.3 31.6 14.3 29.4V27.2C14.3 26.6 14.2167 26.0667 14.05 25.6C13.8833 25.1333 13.7 24.75 13.5 24.45C13.3 24.1167 12.9 23.75 12.3 23.35C11.7 22.95 11.2 22.65 10.8 22.45C10.4333 22.25 9.73333 21.8833 8.7 21.35C7.16667 20.55 5.98333 19.8833 5.15 19.35C4.31667 18.8167 3.48333 18.1667 2.65 17.4C1.85 16.6 1.28333 15.7167 0.95 14.75C0.616667 13.7833 0.45 12.6333 0.45 11.3V9.35C0.45 6.48333 1.33333 4.21666 3.1 2.55C4.9 0.849997 7.28333 -2.5034e-06 10.25 -2.5034e-06C13.2167 -2.5034e-06 15.5833 0.833331 17.35 2.5C19.15 4.13333 20.05 6.36667 20.05 9.2V12.55ZM37.2074 0.499997H43.4074V28.45C43.4074 31.45 42.4574 33.8667 40.5574 35.7C38.6574 37.5333 36.1908 38.45 33.1574 38.45C30.1241 38.45 27.6574 37.5333 25.7574 35.7C23.8574 33.8667 22.9074 31.45 22.9074 28.45V0.499997H29.1074V28.4C29.1074 29.7 29.4741 30.75 30.2074 31.55C30.9741 32.3167 31.9574 32.7 33.1574 32.7C34.3574 32.7 35.3241 32.3167 36.0574 31.55C36.8241 30.75 37.2074 29.7 37.2074 28.4V0.499997ZM55.9531 0.499997C59.3198 0.499997 61.8698 1.33333 63.6031 3C65.3365 4.66666 66.2031 7.35 66.2031 11.05V12.9C66.2031 19.9333 62.7865 23.45 55.9531 23.45H52.4531V38H46.2531V0.499997H55.9531ZM59.9531 13.15V10.95C59.9531 7.81666 58.7031 6.25 56.2031 6.25H52.4531V17.65H56.2031C58.7031 17.65 59.9531 16.15 59.9531 13.15ZM75.1582 32.25H85.8082V38H68.9582V0.499997H85.7582V6.25H75.1582V15.75H83.9582V21.55H75.1582V32.25ZM109.737 38H103.037L98.9371 23.8H98.8371H94.7871V38H88.5871V0.499997H98.8371C105.47 0.499997 108.787 3.78333 108.787 10.35V13.95C108.787 17.85 107.47 20.6333 104.837 22.3L109.737 38ZM94.7871 6.25V18.05H98.9871C101.354 18.05 102.537 16.6833 102.537 13.95V10.35C102.537 7.61666 101.354 6.25 98.9871 6.25H94.7871ZM130.939 12.55H124.739V9.15C124.739 8.08333 124.389 7.26666 123.689 6.7C123.022 6.1 122.105 5.8 120.939 5.8C118.672 5.8 117.539 6.81666 117.539 8.85V10.7C117.539 12.1667 118.189 13.3333 119.489 14.2C119.989 14.5667 121.139 15.2 122.939 16.1C124.505 16.9333 125.689 17.6 126.489 18.1C127.289 18.6 128.122 19.2667 128.989 20.1C129.889 20.9333 130.505 21.8667 130.839 22.9C131.205 23.9 131.389 25.1167 131.389 26.55V28.95C131.389 32.0833 130.472 34.4667 128.639 36.1C126.839 37.7 124.422 38.5 121.389 38.5C118.289 38.5 115.772 37.7 113.839 36.1C111.939 34.4667 110.989 32.15 110.989 29.15V25.85H117.189V29C117.189 30.2 117.555 31.1333 118.289 31.8C119.055 32.4333 120.105 32.7333 121.439 32.7C123.939 32.7 125.189 31.6 125.189 29.4V27.2C125.189 26.6 125.105 26.0667 124.939 25.6C124.772 25.1333 124.589 24.75 124.389 24.45C124.189 24.1167 123.789 23.75 123.189 23.35C122.589 22.95 122.089 22.65 121.689 22.45C121.322 22.25 120.622 21.8833 119.589 21.35C118.055 20.55 116.872 19.8833 116.039 19.35C115.205 18.8167 114.372 18.1667 113.539 17.4C112.739 16.6 112.172 15.7167 111.839 14.75C111.505 13.7833 111.339 12.6333 111.339 11.3V9.35C111.339 6.48333 112.222 4.21666 113.989 2.55C115.789 0.849997 118.172 -2.5034e-06 121.139 -2.5034e-06C124.105 -2.5034e-06 126.472 0.833331 128.239 2.5C130.039 4.13333 130.939 6.36667 130.939 9.2V12.55ZM136.646 2.75C138.546 0.916664 141.013 -2.5034e-06 144.046 -2.5034e-06C147.079 -2.5034e-06 149.546 0.916664 151.446 2.75C153.346 4.58333 154.296 7.01667 154.296 10.05V28.45C154.296 31.2167 153.496 33.5 151.896 35.3C150.296 37.0667 148.179 38.1 145.546 38.4L149.546 42.95H143.296V38.5C140.429 38.3333 138.129 37.35 136.396 35.55C134.663 33.7167 133.796 31.35 133.796 28.45V10.05C133.796 7.01667 134.746 4.58333 136.646 2.75ZM148.096 28.45V10.05C148.096 8.75 147.713 7.71666 146.946 6.95C146.213 6.15 145.246 5.75 144.046 5.75C142.846 5.75 141.863 6.15 141.096 6.95C140.363 7.71666 139.996 8.75 139.996 10.05V28.45C139.996 29.75 140.363 30.8 141.096 31.6C141.863 32.3667 142.846 32.75 144.046 32.75C145.246 32.75 146.213 32.3667 146.946 31.6C147.713 30.8 148.096 29.75 148.096 28.45ZM171.192 0.499997H177.392V28.45C177.392 31.45 176.442 33.8667 174.542 35.7C172.642 37.5333 170.175 38.45 167.142 38.45C164.108 38.45 161.642 37.5333 159.742 35.7C157.842 33.8667 156.892 31.45 156.892 28.45V0.499997H163.092V28.4C163.092 29.7 163.458 30.75 164.192 31.55C164.958 32.3167 165.942 32.7 167.142 32.7C168.342 32.7 169.308 32.3167 170.042 31.55C170.808 30.75 171.192 29.7 171.192 28.4V0.499997ZM193.703 38L192.853 32.25H185.603L184.703 38H178.153L185.453 0.499997H193.403L200.703 38H193.703ZM186.353 27.25H192.103L189.253 8.05L186.353 27.25ZM212.107 0.499997C215.14 0.499997 217.607 1.41666 219.507 3.25C221.407 5.08333 222.357 7.51666 222.357 10.55V27.95C222.357 30.9833 221.407 33.4167 219.507 35.25C217.607 37.0833 215.14 38 212.107 38H202.357V0.499997H212.107ZM216.157 10.55C216.157 9.25 215.773 8.21667 215.007 7.45C214.273 6.65 213.307 6.25 212.107 6.25H208.557V32.25H212.107C213.307 32.25 214.273 31.8667 215.007 31.1C215.773 30.3 216.157 29.25 216.157 27.95V10.55Z" fill="white"/>
</svg>
